<svg width="364" height="96" viewBox="0 0 364 96" fill="none" xmlns="http://www.w3.org/2000/svg">
  <title>Sub Manager — Xray and Mihomo</title>
  <rect x="8" y="8" width="80" height="80" rx="23.45" fill="#0F172A"/>
  <rect x="9.03" y="9.03" width="77.93" height="77.93" rx="22.41" stroke="white" stroke-opacity=".12" stroke-width="2.07"/>
  <path d="M65.24 29.38C60.75 24.41 52.88 22.83 45.7 24.14C37.41 25.66 31.41 30.14 31.41 36.56C31.41 44.98 39.35 47.12 48.33 49.47C56.75 51.68 64.55 54.1 64.55 61.97C64.55 69.22 57.85 73.3 49.01 73.3C40.8 73.3 33.82 70.12 29.75 65.22" stroke="#5EEAD4" stroke-width="7.59" stroke-linecap="round"/>
  <circle cx="65.24" cy="29.38" r="5.52" fill="#F8FAFC"/>
  <circle cx="47.91" cy="49.4" r="4.49" fill="#F8FAFC"/>
  <circle cx="29.75" cy="65.22" r="5.52" fill="#F8FAFC"/>
  <text x="112" y="45" fill="#0F172A" font-family="Geist, Inter, system-ui, sans-serif" font-size="29" font-weight="650" letter-spacing="-1">Sub Manager</text>
  <text x="113" y="66" fill="#64748B" font-family="Geist, Inter, system-ui, sans-serif" font-size="11" font-weight="600" letter-spacing="2.2">XRAY · MIHOMO</text>
</svg>
